<?xml version="1.0" encoding="UTF-8"?>
<svg version="1.1" xmlns="http://www.w3.org/2000/svg" width="758" height="298">
<path d="M0 0 C250.14 0 500.28 0 758 0 C758 98.34 758 196.68 758 298 C507.86 298 257.72 298 0 298 C0 199.66 0 101.32 0 0 Z " fill="#FEFEFE" transform="translate(0,0)"/>
<path d="M0 0 C3.60466218 1.45824832 5.74041222 3.26928953 8.30737305 6.15039062 C8.96363678 6.80387985 9.61990051 7.45736908 10.29605103 8.13066101 C12.41630719 10.26397192 14.46142643 12.45580898 16.51171875 14.65625 C17.9825001 16.16253836 19.45758462 17.66463575 20.9367218 19.16271973 C24.78940141 23.08740972 28.58156841 27.0657005 32.36328125 31.05865479 C36.24385799 35.13478895 40.1798636 39.1566289 44.11132812 43.18359375 C51.7956056 51.0706869 59.41695222 59.01561593 67 67 C65.44174327 70.73970147 63.13921932 73.09660689 60.27832031 75.93286133 C59.56082108 76.64838921 59.56082108 76.64838921 58.8288269 77.37837219 C57.24981001 78.95091058 55.66393596 80.51634716 54.078125 82.08203125 C52.97383506 83.18004475 51.87006271 84.27857901 50.76678467 85.37760925 C47.8601747 88.27092277 44.94805857 91.15862463 42.03430176 94.04473877 C37.38416592 98.65176772 32.74062132 103.26541319 28.10048676 107.88251305 C26.48665976 109.48620705 24.86941177 111.08638879 23.25177002 112.68623352 C17.12684447 118.76198159 17.12684447 118.76198159 11.40917969 125.2175293 C10.61415039 126.13574463 9.81912109 127.05395996 9 128 C8.34 128 7.68 128 7 128 C6.773125 128.5775 6.54625 129.155 6.3125 129.75 C4.67083893 132.56427613 2.56440947 134.02737733 0 136 C-0.33 136.66 -0.66 137.32 -1 138 C-1.66 138 -2.32 138 -3 138 C-3.268125 138.598125 -3.53625 139.19625 -3.8125 139.8125 C-4.99917406 141.99847854 -6.09599113 143.41332594 -8 145 C-8.66 145 -9.32 145 -10 145 C-10.27391634 145.5982619 -10.54783268 146.1965238 -10.83004951 146.81291485 C-11.95888581 148.92314184 -13.04589077 150.30382218 -14.71920776 151.99336243 C-15.27151062 152.55564041 -15.82381348 153.1179184 -16.39285278 153.69723511 C-16.99652679 154.30157379 -17.60020081 154.90591248 -18.22216797 155.52856445 C-18.85977051 156.17449051 -19.49737305 156.82041656 -20.15429688 157.48591614 C-22.26148262 159.61717985 -24.37623579 161.74072239 -26.4921875 163.86328125 C-27.95956076 165.33961879 -29.42685502 166.81603486 -30.89407349 168.29252625 C-33.96879156 171.38372826 -37.04787157 174.47051405 -40.12939453 177.55493164 C-44.08483066 181.51576692 -48.02383959 185.49252284 -51.95910454 189.47338581 C-54.98235958 192.52631138 -58.01673466 195.56799307 -61.05435562 198.60661888 C-62.5121526 200.068634 -63.96580988 201.53478867 -65.41527939 203.0050602 C-67.4382978 205.05479828 -69.47636286 207.08829029 -71.51904297 209.1184082 C-72.11866852 209.73286804 -72.71829407 210.34732788 -73.33609009 210.98040771 C-75.02682495 212.64155579 -75.02682495 212.64155579 -78 215 C-81.30948919 214.71384319 -82.98872439 213.38984278 -85.29707336 211.09733582 C-85.92666458 210.47909439 -86.5562558 209.86085297 -87.20492554 209.22387695 C-88.22364243 208.20076416 -88.22364243 208.20076416 -89.26293945 207.15698242 C-89.98689407 206.44149734 -90.71084869 205.72601227 -91.45674133 204.98884583 C-93.8501499 202.61885917 -96.23217112 200.23780709 -98.61328125 197.85546875 C-100.26876216 196.20708481 -101.92454312 194.55900215 -103.58061218 192.91120911 C-107.0499277 189.45534937 -110.51323436 185.99359482 -113.97290039 182.52807617 C-118.41629448 178.0787767 -122.87768534 173.64801819 -127.34417439 169.22191906 C-130.76789608 165.82398769 -134.18014231 162.41471354 -137.58916283 159.00203896 C-139.22993833 157.36296195 -140.87472337 155.72788882 -142.52349281 154.09685326 C-144.82239111 151.81997783 -147.10499028 149.52792665 -149.3840332 147.23120117 C-150.07329895 146.55519867 -150.7625647 145.87919617 -151.47271729 145.18270874 C-152.08820938 144.55600784 -152.70370148 143.92930695 -153.33784485 143.28361511 C-153.87927281 142.74289966 -154.42070078 142.2021842 -154.97853565 141.64508343 C-156 140 -156 140 -155.98860264 138.14753056 C-154.53999601 135.00073843 -152.25300784 132.78420026 -149.84451294 130.355896 C-149.03029525 129.51772477 -149.03029525 129.51772477 -148.19962871 128.66262078 C-146.37487531 126.78835676 -144.53940799 124.9249696 -142.70361328 123.06152344 C-141.39389514 121.72155123 -140.08470369 120.38106406 -138.77600098 119.0401001 C-134.46968081 114.63443231 -130.14651321 110.24551146 -125.8203125 105.859375 C-125.08378496 105.11230695 -124.34725741 104.3652389 -123.58841085 103.59553242 C-116.63690114 96.54601179 -109.67878954 89.50306535 -102.70570564 82.47488022 C-93.79767649 73.49554242 -84.92274512 64.4860937 -76.09042943 55.43225455 C-69.87216508 49.06341092 -63.6176215 42.7316509 -57.33549297 36.42580056 C-53.58749831 32.66167596 -49.85708235 28.88338723 -46.16495132 25.06438446 C-42.68478233 21.46619957 -39.16151327 17.91641978 -35.60134888 14.39742279 C-34.30894779 13.10458754 -33.03245244 11.79560296 -31.7745018 10.46922302 C-22.35855683 0.56941499 -13.76782883 -3.14699887 0 0 Z " fill="#FEFEFE" transform="translate(659,53)"/>
<path d="M0 0 C2.46948242 1.77246094 2.46948242 1.77246094 4.85546875 4.234375 C5.72494141 5.11867188 6.59441406 6.00296875 7.49023438 6.9140625 C8.38033203 7.84992187 9.27042969 8.78578125 10.1875 9.75 C11.54004883 11.13058594 11.54004883 11.13058594 12.91992188 12.5390625 C19.60943449 19.41287293 19.60943449 19.41287293 21.52856445 22.29785156 C22.01413818 22.85956055 22.49971191 23.42126953 23 24 C24.32 24 25.64 24 27 24 C27 23.34 27 22.68 27 22 C31.30564284 19.84717858 36.89577215 20.59242791 41.625 20.5 C42.78902344 20.44585937 43.95304688 20.39171875 45.15234375 20.3359375 C46.85970703 20.30886719 46.85970703 20.30886719 48.6015625 20.28125 C49.63619629 20.25095703 50.67083008 20.22066406 51.73681641 20.18945312 C55.16949987 21.04210232 56.20110508 21.80951772 58.75804138 24.11581421 C59.81476925 25.0686775 59.81476925 25.0686775 60.89284515 26.04079056 C64.03023364 28.95789993 67.09865528 31.93513462 70.13452148 34.95751953 C70.7973262 35.61375305 71.46013092 36.26998657 72.14302063 36.94610596 C74.30523146 39.08882244 76.46359696 41.23535006 78.62109375 43.3828125 C79.36272326 44.12036648 80.10435276 44.85792046 80.86845589 45.61782455 C84.78235861 49.51098378 88.69306126 53.40732602 92.60131836 57.30615234 C96.63700031 61.33070265 100.68423627 65.34342799 104.73406887 69.35373116 C107.85215897 72.44573354 110.96138456 75.54653442 114.06825447 78.64980698 C115.55726636 80.13394458 117.04965841 81.6146989 118.54546928 83.0919838 C120.63021942 85.15247718 122.70207762 87.22513993 124.77124023 89.30126953 C125.39092682 89.90814606 126.0106134 90.51502258 126.64907837 91.14028931 C131.93453704 96.49105551 131.93453704 96.49105551 132 101 C130.7421875 103.0625 130.7421875 103.0625 128.875 105 C127.90626953 106.0209375 127.90626953 106.0209375 126.91796875 107.0625 C126.28503906 107.701875 125.65210938 108.34125 125 109 C124.50113281 109.53625 124.00226563 110.0725 123.48828125 110.625 C122.37640526 111.80031637 121.19406511 112.90828333 120 114 C119.34 114 118.68 114 118 114 C117.67 115.65 117.34 117.3 117 119 C117.66 119 118.32 119 119 119 C120.625 120.375 120.625 120.375 122 122 C122 122.66 122 123.32 122 124 C122.639375 124.268125 123.27875 124.53625 123.9375 124.8125 C126 126 126 126 127 129 C127.66 129 128.32 129 129 129 C129 129.66 129 130.32 129 131 C129.99 131.33 130.98 131.66 132 132 C132 132.66 132 133.32 132 134 C132.8353125 134.3403125 132.8353125 134.3403125 133.6875 134.6875 C136.75401643 136.42795527 138.7646517 138.26790764 141 141 C141.75 143.8125 141.75 143.8125 141 147 C139.03575223 150.01702805 136.52256498 152.44545321 134 155 C132.87531247 156.1956845 131.7517015 157.39238215 130.62890625 158.58984375 C129.40005347 159.87394423 128.16956912 161.15648522 126.9375 162.4375 C126.05360596 163.37916016 126.05360596 163.37916016 125.15185547 164.33984375 C124.5745166 164.92765625 123.99717773 165.51546875 123.40234375 166.12109375 C122.89179443 166.6514624 122.38124512 167.18183105 121.85522461 167.72827148 C119.13142628 169.5953942 117.30788041 170.00436769 114 170 C111.75103668 168.3213554 110.15431614 166.86118609 108.3046875 164.8125 C107.7899588 164.2760083 107.2752301 163.7395166 106.74490356 163.18676758 C105.10396359 161.47361591 103.48800517 159.73944939 101.875 158 C100.25319591 156.26245568 98.62670963 154.53072397 96.9836731 152.81323242 C95.96240724 151.74481517 94.95347947 150.66444066 93.95846558 149.5715332 C91.37032564 146.74548403 91.37032564 146.74548403 87.78564453 145.92578125 C85.53639166 147.27890029 84.93478498 148.58513881 84 151 C85.0984021 152.0355603 85.0984021 152.0355603 86.21899414 153.09204102 C88.93583297 155.66385357 91.62591915 158.26224398 94.30883789 160.86938477 C95.47263358 161.99299929 96.64351492 163.10932334 97.8215332 164.21801758 C99.51618552 165.81538298 101.18342375 167.43744375 102.84765625 169.06640625 C103.64285423 169.79966881 103.64285423 169.79966881 104.45411682 170.54774475 C107.20459181 173.29476143 107.99176816 174.63824388 108.08129883 178.57275391 C106.88769577 182.35595547 105.68214794 184.03085561 102.8515625 186.76953125 C102.01109375 187.59517578 101.170625 188.42082031 100.3046875 189.27148438 C99.42039062 190.11001953 98.53609375 190.94855469 97.625 191.8125 C96.7484375 192.67037109 95.871875 193.52824219 94.96875 194.41210938 C88.60230655 200.5984623 88.60230655 200.5984623 85 203 C80.87191205 202.90827424 78.84200766 201.27034696 76.02940369 198.3543396 C75.56466141 197.85326691 75.09991913 197.35219421 74.62109375 196.8359375 C73.60749343 195.78638922 72.59381937 194.73691216 71.58007812 193.6875 C70.00091206 192.02724362 68.426147 190.3629662 66.85375977 188.69628906 C65.32829185 187.08663941 63.78808976 185.492235 62.24609375 183.8984375 C61.77932724 183.39331635 61.31256073 182.88819519 60.83164978 182.36776733 C58.28758086 179.67352372 58.28758086 179.67352372 54.79711914 178.94384766 C52.5260137 180.2785579 51.93751057 181.57809768 51 184 C52.0984021 185.0355603 52.0984021 185.0355603 53.21899414 186.09204102 C55.93583297 188.66385357 58.62591915 191.26224398 61.30883789 193.86938477 C62.47263358 194.99299929 63.64351492 196.10932334 64.8215332 197.21801758 C66.51618552 198.81538298 68.18342375 200.43744375 69.84765625 202.06640625 C70.64285423 202.79966881 70.64285423 202.79966881 71.45411682 203.54774475 C74.20459181 206.29476143 74.99176816 207.63824388 75.08129883 211.57275391 C73.88769577 215.35595547 72.68214794 217.03085561 69.8515625 219.76953125 C69.01109375 220.59517578 68.170625 221.42082031 67.3046875 222.27148438 C66.42039062 223.11001953 65.53609375 223.94855469 64.625 224.8125 C63.7484375 225.67037109 62.871875 226.52824219 61.96875 227.41210938 C55.60230655 233.5984623 55.60230655 233.5984623 52 236 C47.79759202 235.92642812 45.68074321 234.13575815 42.77433777 231.2275238 C42.27517349 230.70771439 41.77600922 230.18790497 41.26171875 229.65234375 C40.73608841 229.12105362 40.21045807 228.58976349 39.66889954 228.04237366 C37.99877952 226.34993418 36.34313523 224.64410004 34.6875 222.9375 C33.55496492 221.78489427 32.42151101 220.63319058 31.28710938 219.48242188 C28.51398469 216.66528879 25.75375707 213.83606272 23 211 C20.525 212.98 20.525 212.98 18 215 C19.56665172 218.86664165 22.01782772 221.13429232 25.04296875 223.95703125 C26.04449555 224.91379765 27.04511991 225.87150944 28.04492188 226.83007812 C29.61650201 228.32739489 31.19299786 229.81758974 32.78588867 231.29223633 C34.32760566 232.72480099 35.84252126 234.18169333 37.35546875 235.64453125 C38.72674927 236.93387573 38.72674927 236.93387573 40.12573242 238.24926758 C42 241 42 241 42.05664062 244.52075195 C40.87475091 248.4124133 39.5958185 250.16445134 36.73828125 253.0234375 C35.86623047 253.89871094 34.99417969 254.77398437 34.09570312 255.67578125 C32.71801758 257.01189453 32.71801758 257.01189453 31.3125 258.375 C30.41337891 259.28894531 29.51425781 260.20289063 28.58789062 261.14453125 C22.03976442 267.61098603 22.03976442 267.61098603 18.06616211 269.09765625 C14.42532574 268.98169681 13.08452037 267.87115863 10.55987549 265.32730103 C10.05027283 264.77843231 9.54067017 264.2295636 9.015625 263.6640625 C8.20312286 262.8331459 8.20312286 262.8331459 7.37420654 261.98544312 C5.64891383 260.21440047 3.94932104 258.42094438 2.25 256.625 C0.53143861 254.84161441 -1.19199079 253.06307608 -2.91705322 251.28598022 C-3.98820273 250.17894923 -5.05457186 249.06726899 -6.11566162 247.95059204 C-8.77014619 245.10594446 -8.77014619 245.10594446 -12 243 C-12.22171875 243.54140625 -12.4434375 244.0828125 -12.671875 244.640625 C-14.43398979 247.77097009 -16.75608385 250.20259503 -19.25 252.75 C-19.71535156 253.25660156 -20.18070313 253.76320313 -20.66015625 254.28515625 C-22.85865891 256.53211076 -24.56374878 257.89493449 -27.63990784 258.63578796 C-33.0436799 257.61330017 -35.91220507 253.92188262 -39.68334961 250.09301758 C-40.5343927 249.2524884 -41.38543579 248.41195923 -42.26226807 247.54595947 C-44.58937789 245.24072396 -46.9024793 242.92250963 -49.20912623 240.59682679 C-51.62560524 238.16514782 -54.05669975 235.74815268 -56.48548889 233.32878113 C-60.56051101 229.26467018 -64.6227288 225.18808176 -68.67797852 221.10424805 C-73.36798537 216.38156633 -78.07924759 211.6809193 -82.80209154 206.99109346 C-86.85655578 202.96384453 -90.89922583 198.92503617 -94.93224341 194.87630957 C-97.34103703 192.45815753 -99.75371104 190.04425245 -102.17707634 187.64069557 C-104.87361708 184.95933559 -107.55026576 182.2595963 -110.22241211 179.55395508 C-111.03009537 178.75841721 -111.83777863 177.96287933 -112.66993713 177.14323425 C-113.39192291 176.40432953 -114.11390869 175.6654248 -114.85777283 174.90412903 C-115.80981802 173.9486906 -115.80981802 173.9486906 -116.78109646 172.97395039 C-118 171 -118 171 -117.77906132 168.3620863 C-116.9133997 165.73743096 -116.05710181 164.64561647 -114.0234375 162.80859375 C-113.14171875 161.98004883 -113.14171875 161.98004883 -112.2421875 161.13476562 C-110.9911725 159.99759823 -109.73855019 158.86219671 -108.484375 157.72851562 C-107.89914062 157.17744141 -107.31390625 156.62636719 -106.7109375 156.05859375 C-106.16743652 155.56673584 -105.62393555 155.07487793 -105.06396484 154.56811523 C-103.82394103 153.05884561 -103.82394103 153.05884561 -104.01000977 151.13671875 C-105.43240656 148.06672696 -107.69826352 146.03239876 -110.12890625 143.75390625 C-111.174078 142.74179444 -112.21899208 141.72941647 -113.26367188 140.71679688 C-114.91422719 139.13461503 -116.56858573 137.55673359 -118.22827148 135.98413086 C-119.83100406 134.4599053 -121.41796101 132.9205639 -123.00390625 131.37890625 C-123.50386612 130.91416397 -124.00382599 130.44942169 -124.51893616 129.97059631 C-126.63407078 127.90200038 -127.90434875 126.39942281 -128.59985352 123.49511719 C-127.74470362 119.93808341 -125.95766132 118.2932159 -123.3984375 115.69921875 C-122.92435455 115.2179805 -122.45027161 114.73674225 -121.96182251 114.24092102 C-120.95751546 113.22884452 -119.94678727 112.22310491 -118.93017578 111.22338867 C-117.38147173 109.69389146 -115.86431212 108.13737735 -114.34765625 106.57617188 C-113.36635481 105.59458002 -112.3833354 104.614702 -111.3984375 103.63671875 C-110.50817871 102.74686279 -109.61791992 101.85700684 -108.70068359 100.94018555 C-106 99 -106 99 -103.02734375 98.38208008 C-98.96930562 99.21037802 -96.90604778 101.33612707 -94.1640625 104.25 C-93.63984711 104.78270508 -93.11563171 105.31541016 -92.57553101 105.86425781 C-90.91070121 107.56257262 -89.26798194 109.28056675 -87.625 111 C-86.4974921 112.15761363 -85.36859983 113.31388062 -84.23828125 114.46875 C-81.47590307 117.29714689 -78.73316596 120.14337623 -76 123 C-73.58673043 122.06583113 -72.27944775 121.46489771 -70.92797852 119.21655273 C-71.02546251 116.21635896 -72.45368623 115.03617776 -74.54588318 113.0158844 C-75.07601517 112.52724411 -75.60614716 112.03860382 -76.15234375 111.53515625 C-76.68646378 111.01996933 -77.2205838 110.50478241 -77.77088928 109.97398376 C-80.05956236 107.76716311 -82.37641369 105.59077881 -84.69116211 103.41137695 C-86.37588072 101.81706832 -88.04545023 100.2079801 -89.71484375 98.59765625 C-90.24295151 98.11104019 -90.77105927 97.62442413 -91.31517029 97.12306213 C-93.50250265 95.01041306 -94.8854734 93.46679432 -95.61791992 90.48144531 C-94.73715296 86.94445779 -92.94901307 85.28445014 -90.3984375 82.69921875 C-89.92435455 82.2179805 -89.45027161 81.73674225 -88.96182251 81.24092102 C-87.95751546 80.22884452 -86.94678727 79.22310491 -85.93017578 78.22338867 C-84.38147173 76.69389146 -82.86431212 75.13737735 -81.34765625 73.57617188 C-80.36635481 72.59458002 -79.3833354 71.614702 -78.3984375 70.63671875 C-77.50817871 69.74686279 -76.61791992 68.85700684 -75.70068359 67.94018555 C-73 66 -73 66 -70.02734375 65.38208008 C-65.96930562 66.21037802 -63.90604778 68.33612707 -61.1640625 71.25 C-60.63984711 71.78270508 -60.11563171 72.31541016 -59.57553101 72.86425781 C-57.91070121 74.56257262 -56.26798194 76.28056675 -54.625 78 C-53.4974921 79.15761363 -52.36859983 80.31388062 -51.23828125 81.46875 C-48.47590307 84.29714689 -45.73316596 87.14337623 -43 90 C-40.58673043 89.06583113 -39.27944775 88.46489771 -37.92797852 86.21655273 C-38.02546251 83.21635896 -39.45368623 82.03617776 -41.54588318 80.0158844 C-42.34108116 79.28292397 -42.34108116 79.28292397 -43.15234375 78.53515625 C-43.95352379 77.76237587 -43.95352379 77.76237587 -44.77088928 76.97398376 C-47.05956236 74.76716311 -49.37641369 72.59077881 -51.69116211 70.41137695 C-53.37588072 68.81706832 -55.04545023 67.2079801 -56.71484375 65.59765625 C-57.24295151 65.11104019 -57.77105927 64.62442413 -58.31517029 64.12306213 C-60.50320733 62.00973244 -61.8856231 60.4649376 -62.62011719 57.47924805 C-61.73461811 53.93899484 -59.9347538 52.30375219 -57.36328125 49.734375 C-56.88682663 49.25550842 -56.41037201 48.77664185 -55.91947937 48.28326416 C-54.91077289 47.27553532 -53.89585482 46.27399095 -52.87524414 45.27832031 C-51.31935154 43.75670061 -49.78883944 42.2125789 -48.25976562 40.6640625 C-47.27486429 39.68606105 -46.28857975 38.70945018 -45.30078125 37.734375 C-43.95753784 36.40744629 -43.95753784 36.40744629 -42.5871582 35.05371094 C-38.51118683 31.81816586 -38.51118683 31.81816586 -35 32 C-32.73683208 33.72464011 -30.97481749 35.32442626 -29.04296875 37.37109375 C-28.49514236 37.92740982 -27.94731598 38.48372589 -27.38288879 39.05690002 C-25.63652002 40.83685372 -23.91215005 42.63651888 -22.1875 44.4375 C-21.00725037 45.64784235 -19.82562496 46.85684476 -18.64257812 48.06445312 C-15.74552584 51.02765704 -12.8680339 54.00871175 -10 57 C-7.98562946 56.22236202 -7.98562946 56.22236202 -6 55 C-5.18415432 51.94091587 -5.18415432 51.94091587 -5 49 C-5.639375 48.731875 -6.27875 48.46375 -6.9375 48.1875 C-9 47 -9 47 -10 44 C-11.31207793 43.29241697 -12.64891872 42.6299219 -14 42 C-16.54575751 39.90684565 -18.84725235 37.56868959 -21.1875 35.25 C-22.14946289 34.33734375 -22.14946289 34.33734375 -23.13085938 33.40625 C-23.74123047 32.80296875 -24.35160156 32.1996875 -24.98046875 31.578125 C-25.53629639 31.03575195 -26.09212402 30.49337891 -26.66479492 29.93457031 C-28.53900369 27.21904092 -28.94596757 25.29519486 -29 22 C-27.32519531 19.51464844 -27.32519531 19.51464844 -24.828125 17.109375 C-23.93609375 16.23539063 -23.0440625 15.36140625 -22.125 14.4609375 C-21.17625 13.56632812 -20.2275 12.67171875 -19.25 11.75 C-18.31671875 10.83992188 -17.3834375 9.92984375 -16.421875 8.9921875 C-6.32006024 -0.79031702 -6.32006024 -0.79031702 0 0 Z M17.25097656 43.51269531 C15.90084645 44.85999383 14.54655596 46.20313397 13.18849182 47.54243469 C9.54031545 51.16397834 5.9536054 54.84117077 2.37629795 58.53255939 C-1.38286595 62.39242958 -5.194391 66.1999319 -8.99981689 70.01409912 C-15.37230013 76.41598186 -21.70856671 82.85190685 -28.02099609 89.31298828 C-36.13049027 97.61317497 -44.29490982 105.85697793 -52.47881699 114.08372879 C-59.51738514 121.1594232 -66.53365198 128.25710689 -73.54467487 135.36008358 C-75.79966513 137.64345024 -78.05710503 139.92437663 -80.3146286 142.20523834 C-83.85059295 145.78113835 -87.37247815 149.37036322 -90.88368416 152.97057152 C-92.17627023 154.29222781 -93.47314321 155.60970647 -94.77448082 156.92274666 C-96.54400403 158.70987577 -98.29732023 160.51145835 -100.04705811 162.31793213 C-100.83157683 163.10004496 -100.83157683 163.10004496 -101.63194442 163.89795804 C-104.3027289 166.58131298 -104.3027289 166.58131298 -104.99097538 170.14906216 C-103.88938363 172.20660858 -102.74341546 173.63961875 -101.09733582 175.29707336 C-100.47909439 175.92666458 -99.86085297 176.5562558 -99.22387695 177.20492554 C-98.20076416 178.22364243 -98.20076416 178.22364243 -97.15698242 179.26293945 C-96.44149734 179.98689407 -95.72601227 180.71084869 -94.98884583 181.45674133 C-92.61885917 183.8501499 -90.23780709 186.23217112 -87.85546875 188.61328125 C-86.20708481 190.26876216 -84.55900215 191.92454312 -82.91120911 193.58061218 C-79.45534937 197.0499277 -75.99359482 200.51323436 -72.52807617 203.97290039 C-68.0787767 208.41629448 -63.64801819 212.87768534 -59.22191906 217.34417439 C-55.82398769 220.76789608 -52.41471354 224.18014231 -49.00203896 227.58916283 C-47.36296195 229.22993833 -45.72788882 230.87472337 -44.09685326 232.52349281 C-41.81997783 234.82239111 -39.52792665 237.10499028 -37.23120117 239.3840332 C-36.55519867 240.07329895 -35.87919617 240.7625647 -35.18270874 241.47271729 C-34.55600784 242.08820938 -33.92930695 242.70370148 -33.28361511 243.33784485 C-32.47254193 244.1499868 -32.47254193 244.1499868 -31.64508343 244.97853565 C-30.03515571 246.20466588 -30.03515571 246.20466588 -27.98381138 245.83203316 C-25.82421135 244.92627223 -24.62612522 244.00091166 -22.97540283 242.34962463 C-22.40615585 241.78739197 -21.83690887 241.2251593 -21.25041199 240.64588928 C-20.63829361 240.02612717 -20.02617523 239.40636505 -19.39550781 238.76782227 C-18.74143448 238.1173996 -18.08736115 237.46697693 -17.41346741 236.79684448 C-15.25254995 234.64403618 -13.10268229 232.48055319 -10.953125 230.31640625 C-9.45719639 228.81995917 -7.96074979 227.32402974 -6.46380615 225.82859802 C-3.32870603 222.69340817 -0.19884231 219.55311046 2.92724609 216.40893555 C6.94294797 212.37051731 10.96965948 208.34329612 15.000103 204.31959629 C18.09045227 201.23258099 21.17580661 198.14061383 24.25955963 195.04701042 C25.74305573 193.55965437 27.2279157 192.07365741 28.71413422 190.58902168 C30.78543244 188.51809248 32.85013777 186.44081494 34.91308594 184.36157227 C35.53330124 183.74383438 36.15351654 183.1260965 36.79252625 182.48963928 C39.93654694 179.7517943 39.93654694 179.7517943 41 176 C41.598125 175.731875 42.19625 175.46375 42.8125 175.1875 C44.99847854 174.00082594 46.41332594 172.90400887 48 171 C48 170.34 48 169.68 48 169 C48.66 169 49.32 169 50 169 C51.70993434 167.3777546 53.37347684 165.70586575 55 164 C55.598125 163.443125 56.19625 162.88625 56.8125 162.3125 C58.22363777 161.04781729 58.22363777 161.04781729 58 159 C58.66 159 59.32 159 60 159 C61.40392492 157.61530971 61.40392492 157.61530971 62.88500977 155.74609375 C67.88543073 149.87114453 73.37593964 144.49974465 78.83984375 139.0625 C79.97349143 137.93072136 81.10691559 136.7987188 82.24012756 135.66650391 C85.19863851 132.71177989 88.16014181 129.76007347 91.12231445 126.809021 C94.15434725 123.78728529 97.18349067 120.76265606 100.21289062 117.73828125 C106.13912967 111.82271195 112.06853842 105.91033271 118 100 C116.32635294 95.76456246 113.20913198 92.80369695 110.10766602 89.57910156 C109.20203415 88.62725227 109.20203415 88.62725227 108.27810669 87.65617371 C102.69680948 81.80846718 97.05426455 76.01913952 91.39532566 70.24663162 C87.59977436 66.37447471 83.82493318 62.48627293 80.09448242 58.55126953 C76.4775143 54.73666674 72.8149629 50.97178181 69.11662102 47.23607635 C67.72264516 45.81225325 66.34504481 44.37218678 64.98547554 42.91547394 C63.06400985 40.86363148 61.08900135 38.88140905 59.09204102 36.90332031 C58.55569534 36.30180649 58.01934967 35.70029266 57.4667511 35.08055115 C52.36712365 30.24039091 46.13223969 29.83653826 39.38688213 29.85647392 C29.28239551 30.54669501 23.91780934 36.50412361 17.25097656 43.51269531 Z " fill="#0677DA" transform="translate(608,22)"/>
<path d="M0 0 C7.41613392 -0.11702478 14.83206152 -0.20527725 22.24893951 -0.25906086 C25.69477983 -0.28490431 29.13997823 -0.31982271 32.58544922 -0.37719727 C70.21255082 -0.98727429 70.21255082 -0.98727429 83 10 C88.60087146 15.47472571 91.21343133 20.34706539 91.48217773 28.23144531 C91.55874513 38.2460405 90.29672741 46.29320338 83.18359375 53.95703125 C81.51708666 55.43637123 79.83240127 56.73551002 78 58 C77.195625 58.61875 76.39125 59.2375 75.5625 59.875 C75.046875 60.24625 74.53125 60.6175 74 61 C74.58007812 61.17015625 75.16015625 61.3403125 75.7578125 61.515625 C84.37241992 64.18814347 90.54196312 67.95615085 95 76 C98.25064695 85.61262741 97.97352473 95.68328861 94 105 C88.20041311 115.46528018 77.92836851 120.17070675 66.94140625 123.65234375 C56.13511208 126.63114114 44.81052048 126.15662032 33.70507812 126.13037109 C31.00645326 126.12501281 28.3079948 126.13034019 25.609375 126.13671875 C23.86458297 126.13605784 22.11979105 126.13477642 20.375 126.1328125 C19.58303223 126.13483673 18.79106445 126.13686096 17.97509766 126.13894653 C12.26866968 126.11551904 6.66762349 125.65306141 1 125 C1.00222061 124.10782272 1.00444122 123.21564545 1.00672913 122.2964325 C1.02703616 113.75476517 1.04212546 105.21310631 1.05181217 96.6714201 C1.05696007 92.28345877 1.06390398 87.89551791 1.07543945 83.50756836 C1.12014935 66.05083898 1.12321128 48.62948313 0.35475159 31.186203 C-0.09440755 20.78838082 -0.09469041 10.40542423 0 0 Z " fill="#FF861D" transform="translate(190,59)"/>
<path d="M0 0 C10.23 0 20.46 0 31 0 C31.495 26.235 31.495 26.235 32 53 C35.96 47.39 39.92 41.78 44 36 C47.515625 31.078125 47.515625 31.078125 48.91625977 29.12036133 C55.60214615 19.74445513 61.840761 10.318478 67 0 C78.22 0 89.44 0 101 0 C96.53191944 7.02126944 92.05159021 13.90882462 87.25 20.6875 C86.02284663 22.42927136 84.79629172 24.1714645 83.5703125 25.9140625 C82.96864258 26.7690332 82.36697266 27.62400391 81.74707031 28.50488281 C78.72495308 32.82098652 75.74845055 37.1684825 72.79125977 41.52929688 C70.76200775 44.50680823 68.70155946 47.42577382 66.47265625 50.2578125 C65.71855469 51.22460938 64.96445313 52.19140625 64.1875 53.1875 C63.52105469 54.00605469 62.85460937 54.82460937 62.16796875 55.66796875 C60.74460984 57.91978184 60.74460984 57.91978184 61.4375 60.28515625 C63.65090243 64.13094297 66.18235067 67.6795263 68.8125 71.25 C69.39 72.04067871 69.9675 72.83135742 70.5625 73.64599609 C79.81916981 86.26849947 89.38998536 98.6079759 99.3203125 110.70703125 C100.02462402 111.57448975 100.02462402 111.57448975 100.74316406 112.45947266 C101.76997312 113.71805174 102.81591306 114.96100221 103.8671875 116.19921875 C105 118 105 118 105 122 C100.6266647 122.84223216 96.25109034 123.67221195 91.875 124.5 C90.01875 124.85771484 90.01875 124.85771484 88.125 125.22265625 C86.92617187 125.44824219 85.72734375 125.67382812 84.4921875 125.90625 C82.84259033 126.22045898 82.84259033 126.22045898 81.15966797 126.54101562 C78.02183598 126.99682803 75.16378552 127.22117308 72 127 C67.44703025 123.41964608 64.4998024 118.55957276 61.375 113.75 C60.85647461 112.96149658 60.33794922 112.17299316 59.80371094 111.3605957 C58.19601142 108.91122107 56.59734927 106.4561339 55 104 C54.01830853 102.49864602 53.03654038 100.99734217 52.0546875 99.49609375 C47.21290946 92.07075495 42.46463299 84.59725018 37.8515625 77.02734375 C35.59363284 73.33558112 33.29357662 69.6697226 31 66 C31 85.47 31 104.94 31 125 C20.77 125 10.54 125 0 125 C0 83.75 0 42.5 0 0 Z " fill="#FF861D" transform="translate(15,59)"/>
<path d="M0 0 C11.83036837 -0.04626688 23.66071534 -0.08184039 35.49115562 -0.10362434 C40.98404503 -0.11407763 46.4768727 -0.12826493 51.96972656 -0.15087891 C57.26705154 -0.1725523 62.56431701 -0.18455698 67.86168289 -0.18975449 C69.88636843 -0.19346016 71.91105059 -0.20069604 73.93571091 -0.21146011 C76.76369102 -0.22590194 79.59142276 -0.22798102 82.41943359 -0.22705078 C83.26316025 -0.23424133 84.1068869 -0.24143188 84.97618103 -0.24884033 C90.77189568 -0.22810432 90.77189568 -0.22810432 93 2 C93.0088788 4.61332557 92.90514273 7.09216892 92.6875 9.6875 C92.63916016 10.38294922 92.59082031 11.07839844 92.54101562 11.79492188 C92.21227997 16.25157864 91.63524091 20.55331365 91 25 C81.1 25 71.2 25 61 25 C61 58 61 91 61 125 C50.77 125 40.54 125 30 125 C30.16371094 120.81054688 30.32742188 116.62109375 30.49609375 112.3046875 C31.1077645 95.03193279 31.11872256 77.7720102 31.06866455 60.49072266 C31.05817826 56.46647702 31.05381452 52.4422243 31.04882812 48.41796875 C31.03830727 40.61196099 31.02139092 32.80598639 31 25 C30.06615479 25.03552979 29.13230957 25.07105957 28.17016602 25.10766602 C24.71700422 25.23661333 21.26374148 25.36097112 17.81030273 25.48217773 C16.31349062 25.53566434 14.81674337 25.5909987 13.32006836 25.64819336 C11.17315668 25.72991956 9.02610207 25.8050746 6.87890625 25.87890625 C4.93866577 25.94960327 4.93866577 25.94960327 2.95922852 26.02172852 C0 26 0 26 -1 25 C-1.10166362 22.87702435 -1.12961042 20.75040346 -1.125 18.625 C-1.12757813 17.46226563 -1.13015625 16.29953125 -1.1328125 15.1015625 C-1.07377387 11.79735139 -0.80019423 8.53355098 -0.49169922 5.24365234 C-0.40008514 4.25972504 -0.30847107 3.27579773 -0.21408081 2.26205444 C-0.14343414 1.51557648 -0.07278748 0.76909851 0 0 Z " fill="#FF861D" transform="translate(356,59)"/>
<path d="M0 0 C0.73162046 -0.00175304 1.46324091 -0.00350607 2.21703169 -0.00531223 C4.69982882 -0.01001121 7.18256838 -0.00749681 9.66536808 -0.00507832 C11.4508448 -0.00694433 13.23632111 -0.00924419 15.02179676 -0.01194364 C19.95256228 -0.01809396 24.88331092 -0.01792427 29.8140794 -0.01674926 C35.12226414 -0.01654607 40.43044334 -0.0220562 45.73862553 -0.02680683 C56.1472788 -0.03513155 66.55592641 -0.03786249 76.96458273 -0.03841921 C85.42039814 -0.0388935 93.87621167 -0.04094385 102.33202648 -0.04411983 C126.27713775 -0.05293126 150.22224453 -0.05753843 174.16735744 -0.05678936 C175.45963567 -0.0567494 176.75191391 -0.05670945 178.08335209 -0.05666828 C179.37719816 -0.0566274 180.67104424 -0.05658652 182.00409777 -0.0565444 C202.98333585 -0.05613776 223.96255601 -0.06571063 244.9417889 -0.07980665 C266.45500758 -0.09414803 287.9682175 -0.10107807 309.48144108 -0.10021287 C321.57079771 -0.09988013 333.66013554 -0.10266073 345.74948788 -0.11339092 C356.04108273 -0.12246654 366.33265026 -0.1246955 376.62424736 -0.1178815 C381.88008779 -0.11460139 387.13587571 -0.1146129 392.39171124 -0.12323475 C397.19612302 -0.13103535 402.0004401 -0.12973509 406.80484939 -0.12095062 C408.54979685 -0.11940129 410.29475115 -0.1212849 412.03969055 -0.12681069 C414.39810889 -0.1337889 416.7561874 -0.12864253 419.11459351 -0.12025452 C420.42864322 -0.12047188 421.74269293 -0.12068925 423.09656233 -0.12091321 C426.12021732 0.12863445 426.12021732 0.12863445 428.12021732 2.12863445 C428.37021732 5.62863445 428.37021732 5.62863445 428.12021732 9.12863445 C426.12021732 11.12863445 426.12021732 11.12863445 423.09656233 11.37818211 C421.78251262 11.37796475 420.4684629 11.37774738 419.11459351 11.37752342 C418.38151961 11.38013071 417.64844571 11.38273799 416.89315745 11.38542429 C414.41138074 11.39177218 411.92985248 11.38373177 409.44808292 11.37587261 C407.66102999 11.37745933 405.87397765 11.37992155 404.086927 11.38318902 C399.1564659 11.38963055 394.22608634 11.38351282 389.29563057 11.37542474 C383.98611913 11.36886905 378.67661712 11.37379154 373.36710453 11.37730694 C362.95824447 11.38235862 352.54941609 11.37669527 342.14055996 11.36745664 C330.03215937 11.35709413 317.9237657 11.35714225 305.81536151 11.35762922 C284.21913812 11.3581303 262.62292952 11.34895557 241.02671146 11.334445 C220.04558893 11.3203549 199.06447942 11.31327426 178.08335209 11.31393719 C176.14493474 11.31399712 176.14493474 11.31399712 174.16735744 11.31405827 C172.87736699 11.31409862 171.58737654 11.31413898 170.25829548 11.31418055 C146.40799219 11.31486954 122.55769446 11.30898545 98.70739297 11.30002734 C90.25647895 11.29700476 81.80556595 11.29594704 73.35465145 11.29549503 C63.06415409 11.29481447 52.77366609 11.29037184 42.48317271 11.28116222 C37.22746509 11.27652989 31.97176949 11.27350399 26.71605968 11.27475643 C21.91299541 11.27584555 17.10995779 11.27236962 12.30689908 11.26510791 C10.56132772 11.2632836 8.81575362 11.26317483 7.07018214 11.2648752 C4.71342241 11.26691817 2.3567519 11.26291592 0 11.25726891 C-1.31388736 11.25656448 -2.62777472 11.25586006 -3.98147684 11.25513428 C-6.87978268 11.12863445 -6.87978268 11.12863445 -7.87978268 10.12863445 C-7.97768837 8.63125321 -8.00953132 7.12920553 -8.00478268 5.62863445 C-8.0073608 4.81394695 -8.00993893 3.99925945 -8.01259518 3.15988445 C-7.71419851 -1.40382927 -3.73895889 0.0020046 0 0 Z " fill="#FF851B" transform="translate(21.879782676696777,199.87136554718018)"/>
<path d="M0 0 C10.56 0 21.12 0 32 0 C32 41.25 32 82.5 32 125 C21.44 125 10.88 125 0 125 C0.165 121.74125 0.33 118.4825 0.5 115.125 C1.69454629 87.04936994 1.64878327 58.73455323 0.3581543 30.66503906 C-0.11164414 20.43613032 -0.06872065 10.23937692 0 0 Z " fill="#FF861E" transform="translate(306,59)"/>
<path d="M0 0 C10.56 0 21.12 0 32 0 C32.07146223 10.50494732 32.08166909 20.96627477 31.64195251 31.4622345 C30.86780031 50.07409173 30.88067973 68.67044229 30.93133545 87.29486084 C30.94365373 92.32571876 30.94800473 97.35658994 30.95378876 102.3874588 C30.96329799 109.92499875 30.98252951 117.46245551 31 125 C20.77 125 10.54 125 0 125 C0 83.75 0 42.5 0 0 Z " fill="#FF861D" transform="translate(131,59)"/>
<path d="M0 0 C3.78268431 4.02413225 6.34182804 8.01225666 6.5625 13.625 C6.1363479 19.18434783 4.28276949 23.3873755 0.8125 27.75 C-3.64758386 31.31806709 -7.88268081 32.69752583 -13.5 33.5 C-19.42525851 32.6535345 -23.46517167 29.69224662 -27.4375 25.3125 C-31.06783101 19.9396101 -30.54783464 14.32710427 -30 8 C-27.63341233 2.90273425 -23.37304704 -1.53834628 -18.125 -3.8125 C-11.0530917 -4.43649191 -5.81924115 -4.45423396 0 0 Z " fill="#0979DA" transform="translate(662,74)"/>
<path d="M0 0 C4.9190625 -0.12375 4.9190625 -0.12375 9.9375 -0.25 C10.95191162 -0.28641602 11.96632324 -0.32283203 13.01147461 -0.36035156 C20.59181784 -0.45156578 26.59428457 1.19028477 32.5 6.0625 C35.69585272 10.19047643 35.60706129 15.00670714 35 20 C32.61560029 24.8605071 29.68758582 27.36323298 25 30 C21.95513548 30.97281916 19.20228834 31.11708712 16.015625 31.09765625 C15.17290039 31.09515869 14.33017578 31.09266113 13.46191406 31.09008789 C12.40198242 31.08098389 11.34205078 31.07187988 10.25 31.0625 C6.8675 31.041875 3.485 31.02125 0 31 C0 20.77 0 10.54 0 0 Z " fill="#FFFCFB" transform="translate(220,132)"/>
<path d="M0 0 C18.70479528 -0.63406086 18.70479528 -0.63406086 26 4 C29.04944195 7.04944195 29.20054547 9.78174397 29.375 13.9375 C29.19394073 19.02224791 28.26568256 22.72193666 24.5703125 26.4375 C20.52377748 29.98073464 17.53201999 31.14140379 12.25 31.125 C11.43015625 31.12757812 10.6103125 31.13015625 9.765625 31.1328125 C6.49236099 30.97562186 3.24410032 30.4634429 0 30 C0 20.1 0 10.2 0 0 Z " fill="#FFFDFB" transform="translate(221,81)"/>
<path d="M0 0 C3.82468048 1.98316766 7.09067421 4.07527477 9 8 C9.57699515 12.26335307 9.49437222 15.82911842 7.8125 19.8125 C2.92331484 25.71324071 2.92331484 25.71324071 -1.59375 26.38671875 C-6.00034691 26.55848126 -9.08144387 26.49755124 -13 24.375 C-16.53052436 20.18250232 -18.31262048 16.97272143 -18 11.4375 C-17.31929242 6.94482994 -15.60559648 4.83296866 -12 2 C-7.95752375 -0.69498416 -4.7484973 -0.66560133 0 0 Z " fill="#FF8B26" transform="translate(275,226)"/>
<path d="M0 0 C5.06623768 4.23816537 9.80038069 8.67408963 14.4375 13.375 C15.07365234 14.01566406 15.70980469 14.65632812 16.36523438 15.31640625 C17.91250332 16.87530879 19.45736492 18.43651416 21 20 C19.32867581 23.54023647 17.36660667 25.99347254 14.625 28.8125 C13.85414063 29.62332031 13.08328125 30.43414062 12.2890625 31.26953125 C10 33 10 33 8.12744141 32.86035156 C5.32542868 31.72719884 3.78452503 30.12276485 1.671875 27.96484375 C0.87265625 27.15595703 0.0734375 26.34707031 -0.75 25.51367188 C-1.575 24.66353516 -2.4 23.81339844 -3.25 22.9375 C-4.09046875 22.08349609 -4.9309375 21.22949219 -5.796875 20.34960938 C-7.87147597 18.23964588 -9.93875832 16.12300292 -12 14 C-10.21799313 10.14972009 -7.92324595 7.7200858 -4.875 4.75 C-3.96492187 3.85796875 -3.05484375 2.9659375 -2.1171875 2.046875 C-1.41851563 1.37140625 -0.71984375 0.6959375 0 0 Z " fill="#FBFCFE" transform="translate(650,212)"/>
<path d="M0 0 C5.83151111 0.86627819 9.33610794 5.8237493 13.3125 9.8125 C14.16134766 10.63298828 15.01019531 11.45347656 15.88476562 12.29882812 C16.68205078 13.09353516 17.47933594 13.88824219 18.30078125 14.70703125 C19.03466064 15.4338208 19.76854004 16.16061035 20.5246582 16.90942383 C22 19 22 19 21.87402344 21.10717773 C20.49780203 24.08758125 18.28783777 25.98891557 15.9375 28.25 C15.01839844 29.14203125 14.09929688 30.0340625 13.15234375 30.953125 C12.44207031 31.62859375 11.73179687 32.3040625 11 33 C5.75791355 30.69909822 2.19732934 26.60507793 -1.8125 22.625 C-2.61365234 21.85671875 -3.41480469 21.0884375 -4.24023438 20.296875 C-4.99240234 19.55179688 -5.74457031 18.80671875 -6.51953125 18.0390625 C-7.21151611 17.36053223 -7.90350098 16.68200195 -8.61645508 15.98291016 C-10 14 -10 14 -9.83081055 11.87695312 C-8.69015852 9.30001136 -7.04705625 7.79777069 -5 5.875 C-2.10714412 3.22939276 -2.10714412 3.22939276 0 0 Z " fill="#FAFCFE" transform="translate(536,100)"/>
<path d="M0 0 C2.80201272 1.13315272 4.34291638 2.73758671 6.45556641 4.89550781 C7.25478516 5.70439453 8.05400391 6.51328125 8.87744141 7.34667969 C9.70244141 8.19681641 10.52744141 9.04695312 11.37744141 9.92285156 C12.63814453 11.20385742 12.63814453 11.20385742 13.92431641 12.51074219 C15.99891738 14.62070568 18.06619973 16.73734864 20.12744141 18.86035156 C18.45611721 22.40058803 16.49404808 24.8538241 13.75244141 27.67285156 C12.98158203 28.48367187 12.21072266 29.29449219 11.41650391 30.12988281 C9.12744141 31.86035156 9.12744141 31.86035156 7.25488281 31.72070312 C4.45287009 30.5875504 2.91196644 28.98311642 0.79931641 26.82519531 C0.00009766 26.01630859 -0.79912109 25.20742187 -1.62255859 24.37402344 C-2.44755859 23.52388672 -3.27255859 22.67375 -4.12255859 21.79785156 C-4.96302734 20.94384766 -5.80349609 20.08984375 -6.66943359 19.20996094 C-8.74403457 17.09999745 -10.81131691 14.98335448 -12.87255859 12.86035156 C-11.2012344 9.3201151 -9.23916527 6.86687902 -6.49755859 4.04785156 C-5.72669922 3.23703125 -4.95583984 2.42621094 -4.16162109 1.59082031 C-1.87255859 -0.13964844 -1.87255859 -0.13964844 0 0 Z " fill="#FBFCFE" transform="translate(683.87255859375,180.1396484375)"/>
<path d="M0 0 C3.88136584 0.55612455 5.62756918 2.27673138 8.328125 5.03515625 C9.12734375 5.84404297 9.9265625 6.65292969 10.75 7.48632812 C11.575 8.33646484 12.4 9.18660156 13.25 10.0625 C14.51070312 11.34350586 14.51070312 11.34350586 15.796875 12.65039062 C17.87147597 14.76035412 19.93875832 16.87699708 22 19 C21.01 21.475 21.01 21.475 20 24 C19.34 24 18.68 24 18 24 C18 24.66 18 25.32 18 26 C16.609375 27.54296875 16.609375 27.54296875 14.75 29.1875 C14.14671875 29.73792969 13.5434375 30.28835938 12.921875 30.85546875 C11 32 11 32 9.13891602 31.79907227 C4.65784991 30.12500203 1.51580991 26.07007831 -1.8125 22.75 C-2.61365234 21.98558594 -3.41480469 21.22117187 -4.24023438 20.43359375 C-4.99240234 19.68722656 -5.74457031 18.94085938 -6.51953125 18.171875 C-7.21151611 17.4922168 -7.90350098 16.81255859 -8.61645508 16.11230469 C-10 14 -10 14 -9.86987305 11.41503906 C-8.65967125 8.05514117 -6.68619184 6.29309059 -4 4 C-3.34 4 -2.68 4 -2 4 C-2 3.34 -2 2.68 -2 2 C-1.34 2 -0.68 2 0 2 C0 1.34 0 0.68 0 0 Z " fill="#F8FBFE" transform="translate(615,246)"/>
<path d="M0 0 C0 0.66 0 1.32 0 2 C0.66 2 1.32 2 2 2 C3.625 3.375 3.625 3.375 5 5 C5 5.66 5 6.32 5 7 C5.66 7 6.32 7 7 7 C8.55078125 8.57421875 8.55078125 8.57421875 10.3125 10.6875 C13.08499308 13.95300964 15.92600859 17.01915985 19 20 C17.4700928 23.60561914 15.31303068 25.9859199 12.5625 28.75 C11.78003906 29.54921875 10.99757813 30.3484375 10.19140625 31.171875 C8 33 8 33 5 33 C3.59765625 31.671875 3.59765625 31.671875 2.0625 29.75 C-1.24606643 25.78542471 -4.7738725 22.13183546 -8.4375 18.5 C-8.98204834 17.95956055 -9.52659668 17.41912109 -10.08764648 16.86230469 C-11.38975721 15.57283984 -12.69458678 14.2861214 -14 13 C-12.4700928 9.39438086 -10.31303068 7.0140801 -7.5625 4.25 C-6.78003906 3.45078125 -5.99757813 2.6515625 -5.19140625 1.828125 C-3 0 -3 0 0 0 Z " fill="#F9FBFE" transform="translate(718,146)"/>
<path d="M0 0 C5.30203944 2.69293307 9.19943018 6.79530507 13.375 10.9375 C14.12394531 11.65357422 14.87289062 12.36964844 15.64453125 13.10742188 C16.34707031 13.80287109 17.04960938 14.49832031 17.7734375 15.21484375 C18.41716309 15.84511475 19.06088867 16.47538574 19.72412109 17.12475586 C21 19 21 19 20.84448242 21.07543945 C19.51791985 24.09865217 17.29952463 25.9776725 14.9375 28.25 C14.01839844 29.14203125 13.09929688 30.0340625 12.15234375 30.953125 C11.44207031 31.62859375 10.73179687 32.3040625 10 33 C4.75791355 30.69909822 1.19732934 26.60507793 -2.8125 22.625 C-3.61365234 21.85671875 -4.41480469 21.0884375 -5.24023438 20.296875 C-5.99240234 19.55179688 -6.74457031 18.80671875 -7.51953125 18.0390625 C-8.21151611 17.36053223 -8.90350098 16.68200195 -9.61645508 15.98291016 C-11 14 -11 14 -10.86035156 11.90869141 C-9.50754669 8.90749149 -7.29365891 7.01668452 -4.9375 4.75 C-4.01839844 3.85796875 -3.09929688 2.9659375 -2.15234375 2.046875 C-1.44207031 1.37140625 -0.73179687 0.6959375 0 0 Z " fill="#FAFCFE" transform="translate(570,67)"/>
<path d="M0 0 C2.80024347 1.13360804 4.34174704 2.73863667 6.45336914 4.89550781 C7.25258789 5.70439453 8.05180664 6.51328125 8.87524414 7.34667969 C9.70024414 8.19681641 10.52524414 9.04695312 11.37524414 9.92285156 C12.63594727 11.20385742 12.63594727 11.20385742 13.92211914 12.51074219 C15.99672012 14.62070568 18.06400246 16.73734864 20.12524414 18.86035156 C19.13524414 21.33535156 19.13524414 21.33535156 18.12524414 23.86035156 C17.46524414 23.86035156 16.80524414 23.86035156 16.12524414 23.86035156 C16.12524414 24.52035156 16.12524414 25.18035156 16.12524414 25.86035156 C14.73461914 27.40332031 14.73461914 27.40332031 12.87524414 29.04785156 C12.27196289 29.59828125 11.66868164 30.14871094 11.04711914 30.71582031 C9.12524414 31.86035156 9.12524414 31.86035156 7.12524414 31.75097656 C4.68805891 30.66566752 3.23323437 29.33245263 1.37524414 27.42285156 C0.76165039 26.80539063 0.14805664 26.18792969 -0.48413086 25.55175781 C-1.87475586 23.86035156 -1.87475586 23.86035156 -1.87475586 21.86035156 C-2.51413086 21.59222656 -3.15350586 21.32410156 -3.81225586 21.04785156 C-5.87475586 19.86035156 -5.87475586 19.86035156 -6.87475586 16.86035156 C-7.53475586 16.86035156 -8.19475586 16.86035156 -8.87475586 16.86035156 C-10.56225586 15.11035156 -10.56225586 15.11035156 -11.87475586 12.86035156 C-11.55299974 8.87226908 -9.28604511 6.80730417 -6.56225586 4.04785156 C-5.39243164 2.83162109 -5.39243164 2.83162109 -4.19897461 1.59082031 C-1.87475586 -0.13964844 -1.87475586 -0.13964844 0 0 Z " fill="#FAFCFE" transform="translate(504.874755859375,134.1396484375)"/>
<path d="M0 0 C0 0.66 0 1.32 0 2 C0.66 2 1.32 2 2 2 C2 2.66 2 3.32 2 4 C2.99 4.33 3.98 4.66 5 5 C5 5.66 5 6.32 5 7 C5.66 7 6.32 7 7 7 C8.18777567 8.11990278 9.36684363 9.25097189 10.4921875 10.43359375 C11.59428639 11.57852031 12.72958647 12.69174484 13.8828125 13.78515625 C14.51960937 14.39230469 15.15640625 14.99945313 15.8125 15.625 C16.41707031 16.19476563 17.02164063 16.76453125 17.64453125 17.3515625 C19 19 19 19 19 22 C17.35546875 23.71875 17.35546875 23.71875 15.1875 25.5 C12.17602076 27.97553626 12.17602076 27.97553626 9.48828125 30.78125 C8 32 8 32 6.17749023 31.82836914 C3.31513499 30.73946104 1.8117258 29.1505485 -0.328125 26.96484375 C-1.12734375 26.15595703 -1.9265625 25.34707031 -2.75 24.51367188 C-3.575 23.66353516 -4.4 22.81339844 -5.25 21.9375 C-6.09046875 21.08349609 -6.9309375 20.22949219 -7.796875 19.34960938 C-9.87147597 17.23964588 -11.93875832 15.12300292 -14 13 C-12.32523913 9.4393148 -10.350057 7.05128881 -7.5625 4.25 C-6.78003906 3.45078125 -5.99757813 2.6515625 -5.19140625 1.828125 C-3 0 -3 0 0 0 Z " fill="#F9FBFE" transform="translate(606,34)"/>
<path d="M0 0 C13 0 13 0 18 4 C19.40457737 6.80915474 19.24895157 8.88810534 19 12 C18.46375 12.680625 17.9275 13.36125 17.375 14.0625 C16.694375 15.0215625 16.694375 15.0215625 16 16 C16.62533375 18.52363988 16.62533375 18.52363988 18 21 C18.66666667 22.66666667 19.33333333 24.33333333 20 26 C17.25 26.375 17.25 26.375 14 26 C10 21.15789474 10 21.15789474 10 18 C8.68 18 7.36 18 6 18 C6 20.64 6 23.28 6 26 C4.02 26 2.04 26 0 26 C0 17.42 0 8.84 0 0 Z " fill="#FF8D2B" transform="translate(289,226)"/>
<path d="M0 0 C2.98591063 3.73238829 5.89022227 7.48544451 8.75 11.3125 C9.16121094 11.86228516 9.57242187 12.41207031 9.99609375 12.97851562 C10.99813666 14.31845673 11.99917397 15.65914974 13 17 C16.52752047 13.62665438 19.44884275 10.1807528 22.25 6.1875 C23.47682336 4.44181337 24.72028071 2.70728905 26 1 C26.33 1 26.66 1 27 1 C27 9.58 27 18.16 27 27 C25.35 27 23.7 27 22 27 C21.505 22.05 21.505 22.05 21 17 C18.69 20.3 16.38 23.6 14 27 C10.71211176 23.88983545 8.16264012 20.98381075 6 17 C5.67 20.3 5.34 23.6 5 27 C3.35 27 1.7 27 0 27 C0 18.09 0 9.18 0 0 Z " fill="#FF8820" transform="translate(314,225)"/>
<path d="M0 0 C8.23529412 7.05882353 8.23529412 7.05882353 11.25 9.6875 C11.89453125 10.24824219 12.5390625 10.80898437 13.203125 11.38671875 C14.85384467 12.86877793 16.43134216 14.43134216 18 16 C18.33 11.05 18.66 6.1 19 1 C20.65 1 22.3 1 24 1 C24 9.91 24 18.82 24 28 C17.25 23.5 17.25 23.5 14.7890625 21.203125 C14.26699219 20.71972656 13.74492187 20.23632812 13.20703125 19.73828125 C12.68496094 19.24714844 12.16289062 18.75601563 11.625 18.25 C11.07972656 17.74339844 10.53445312 17.23679688 9.97265625 16.71484375 C8.64494637 15.4803065 7.32196894 14.24068282 6 13 C5.67 17.62 5.34 22.24 5 27 C3.35 27 1.7 27 0 27 C0 18.09 0 9.18 0 0 Z " fill="#FF8924" transform="translate(207,225)"/>
<path d="M0 0 C0.66 0 1.32 0 2 0 C3.56884528 3.6835243 5.13536632 7.36802712 6.69970703 11.0534668 C7.23259149 12.3079724 7.76611872 13.56220516 8.30029297 14.81616211 C9.0664555 16.61500938 9.830142 18.4149106 10.59375 20.21484375 C11.05458984 21.29886475 11.51542969 22.38288574 11.99023438 23.49975586 C13 26 13 26 13 27 C11.02 27 9.04 27 7 27 C6.76539063 26.35546875 6.53078125 25.7109375 6.2890625 25.046875 C5.18838927 22.7922092 5.18838927 22.7922092 2.8359375 22.390625 C1.61777344 22.32101563 1.61777344 22.32101563 0.375 22.25 C-0.44226563 22.19328125 -1.25953125 22.1365625 -2.1015625 22.078125 C-3.04128906 22.03945312 -3.04128906 22.03945312 -4 22 C-4.99 24.475 -4.99 24.475 -6 27 C-7.65 27 -9.3 27 -11 27 C-10.54109375 25.88882813 -10.0821875 24.77765625 -9.609375 23.6328125 C-6.36559798 15.77122598 -3.12839895 7.9084371 0 0 Z " fill="#FF8A24" transform="translate(356,225)"/>
<path d="M0 0 C2.63367854 2.32842739 3.88530951 4.56256994 5.26171875 7.78125 C5.65810547 8.70550781 6.05449219 9.62976563 6.46289062 10.58203125 C6.86701172 11.54496094 7.27113281 12.50789062 7.6875 13.5 C8.10322266 14.46292969 8.51894531 15.42585937 8.94726562 16.41796875 C12 23.60618073 12 23.60618073 12 27 C10.35 27 8.7 27 7 27 C6.34 25.35 5.68 23.7 5 22 C3.54052295 22.06006078 2.08220728 22.1488689 0.625 22.25 C-0.18710937 22.29640625 -0.99921875 22.3428125 -1.8359375 22.390625 C-4.18838927 22.7922092 -4.18838927 22.7922092 -5.2890625 25.046875 C-5.52367187 25.69140625 -5.75828125 26.3359375 -6 27 C-7.65 27 -9.3 27 -11 27 C-9.00667932 20.60703339 -6.58525386 14.52953606 -3.8125 8.4375 C-3.44447266 7.61958984 -3.07644531 6.80167969 -2.69726562 5.95898438 C-1.80204987 3.97090782 -0.9015835 1.98519692 0 0 Z " fill="#FF8924" transform="translate(437,225)"/>
<path d="M0 0 C5.61 0 11.22 0 17 0 C17 1.65 17 3.3 17 5 C13.37 5 9.74 5 6 5 C6 6.98 6 8.96 6 11 C8.97 11 11.94 11 15 11 C15 12.65 15 14.3 15 16 C12.03 16 9.06 16 6 16 C6 19.3 6 22.6 6 26 C4.02 26 2.04 26 0 26 C0 17.42 0 8.84 0 0 Z " fill="#FF8D2A" transform="translate(237,226)"/>
<path d="M0 0 C0.85722656 0.01546875 1.71445312 0.0309375 2.59765625 0.046875 C4.9375 0.25 4.9375 0.25 7.9375 1.25 C7.2775 2.9 6.6175 4.55 5.9375 6.25 C5.32261719 6.21519531 4.70773437 6.18039063 4.07421875 6.14453125 C3.26597656 6.11746094 2.45773437 6.09039062 1.625 6.0625 C0.82449219 6.02769531 0.02398437 5.99289063 -0.80078125 5.95703125 C-3.1125229 6.07624949 -3.1125229 6.07624949 -4.8359375 7.51171875 C-6.31231804 9.60404149 -6.43750612 10.71128977 -6.375 13.25 C-6.37113281 13.930625 -6.36726563 14.61125 -6.36328125 15.3125 C-6.15158293 17.57191109 -6.15158293 17.57191109 -4.0625 20.25 C-1.39596095 20.61460453 -1.39596095 20.61460453 1.5625 20.4375 C2.56539063 20.41042969 3.56828125 20.38335937 4.6015625 20.35546875 C5.75785156 20.30326172 5.75785156 20.30326172 6.9375 20.25 C7.2675 21.9 7.5975 23.55 7.9375 25.25 C3.27839211 26.80303596 -1.21652718 27.12103078 -6.0625 26.25 C-9.32393034 23.84020041 -11.26754366 20.83991269 -13.0625 17.25 C-13.57140436 11.14314771 -13.1400461 8.12040228 -9.0625 3.25 C-6.00468608 0.48028846 -4.10662349 -0.12388005 0 0 Z " fill="#FF8B27" transform="translate(415.0625,225.75)"/>
<path d="M0 0 C2.9375 1.5625 2.9375 1.5625 5 4 C5.625 7.4375 5.625 7.4375 5 11 C2.9375 13.9375 2.9375 13.9375 0 16 C-3.95779649 16.62491523 -6.00863886 16.61006839 -9.4375 14.5 C-11.63828902 10.97873756 -11.80414661 8.04560357 -11 4 C-8.1553332 -0.55146687 -5.11689336 -0.71816047 0 0 Z " fill="#F8FBFD" transform="translate(653,80)"/>
<path d="M0 0 C3.38677089 2.45000447 4.78698584 3.86392446 5.5625 8 C4.84202557 11.8425303 3.99097304 13.45767292 1 16 C-2.99893269 16.94237143 -5.98105682 16.61136591 -9.5 14.5 C-11.61897146 10.9683809 -11.79841448 8.01676563 -11 4 C-8.16650967 -0.53358453 -5.10426635 -0.80593679 0 0 Z " fill="#FFFBF9" transform="translate(274,231)"/>
<path d="M0 0 C5.94 0 11.88 0 18 0 C18 1.65 18 3.3 18 5 C15.69 5 13.38 5 11 5 C11 11.93 11 18.86 11 26 C9.35 26 7.7 26 6 26 C6 19.07 6 12.14 6 5 C4.02 5 2.04 5 0 5 C0 3.35 0 1.7 0 0 Z " fill="#FF871F" transform="translate(369,226)"/>
<path d="M0 0 C1.65 0 3.3 0 5 0 C5 8.58 5 17.16 5 26 C3.35 26 1.7 26 0 26 C0 17.42 0 8.84 0 0 Z " fill="#FF861D" transform="translate(392,226)"/>
<path d="M0 0 C1.65 0 3.3 0 5 0 C5 8.58 5 17.16 5 26 C3.35 26 1.7 26 0 26 C0 17.42 0 8.84 0 0 Z " fill="#FF851B" transform="translate(195,226)"/>
<path d="M0 0 C1.99954746 -0.04254356 4.00041636 -0.04080783 6 0 C7 1 7 1 7.0625 4.0625 C7.041875 5.031875 7.02125 6.00125 7 7 C4.69 7.33 2.38 7.66 0 8 C0 5.36 0 2.72 0 0 Z " fill="#FFF9F4" transform="translate(295,231)"/>
<path d="M0 0 C1.5 1.3125 1.5 1.3125 3 3 C3 3.99 3 4.98 3 6 C1.35 6 -0.3 6 -2 6 C-1.34 4.02 -0.68 2.04 0 0 Z " fill="#FFE6D1" transform="translate(356,237)"/>
<path d="M0 0 C3 3.75 3 3.75 3 6 C1.35 6 -0.3 6 -2 6 C-1.34 4.02 -0.68 2.04 0 0 Z " fill="#FFEDDD" transform="translate(437,237)"/>
</svg>
